# xmcd
#
# Track frame offsets:
#  150
#  19443
#  46074
#  67159
#  83301
#  100052
#  123433
#  141843
#  160297
#  179100
#  201883
#  224086
#
# Disc length: 3263 seconds
#
# Revision: 0
# Processed by: cddbd v1.5.1PL0 Copyright (c) Steve Scherf et al.
# Submitted via: Collectorz.com_Music_Collector 6.9
#
DISCID=b20cbd0c
DTITLE=Michelle Lundeen - Song Inside Me
DYEAR=2004
DGENRE=Blues -  Blues Female Vocalist
TTITLE0=Blues Is A Feeling
TTITLE1=Song Inside Me
TTITLE2=Voodoo Man
TTITLE3=All Day Blues
TTITLE4=Free At Last
TTITLE5=You're Gonna Make Me Cry
TTITLE6=I'm Still Laughing
TTITLE7=No Mercy No Honey
TTITLE8=Starting All Over
TTITLE9=(Darlin) I Know You Love Me
TTITLE10=Qualify My Love
TTITLE11=I Need A Dog
EXTD=
EXTT0=
EXTT1=
EXTT2=
EXTT3=
EXTT4=
EXTT5=
EXTT6=
EXTT7=
EXTT8=
EXTT9=
EXTT10=
EXTT11=
PLAYORDER=
